<?xml version="1.0" standalone="no"?>
<!DOCTYPE svg PUBLIC "-//W3C//DTD SVG 1.1//EN" "http://www.w3.org/Graphics/SVG/1.1/DTD/svg11.dtd" >
<svg xmlns="http://www.w3.org/2000/svg">
<metadata></metadata>
<defs>
<font id="akzidenz-grotesk_stdsuperIt" horiz-adv-x="1482" >
<font-face units-per-em="2048" ascent="1536" descent="-512" />
<missing-glyph horiz-adv-x="641" />
<glyph unicode="&#xfb01;" horiz-adv-x="1296" d="M37 0l186 836h-112l47 219h112l6 30q22 114 51 186t78.5 122.5t122 71t181.5 20.5q103 0 223 -27l-55 -264q-38 6 -60 6q-55 0 -80.5 -23t-38.5 -85l-8 -37h125l-49 -219h-123l-188 -836h-418zM686 0l240 1055h422l-240 -1055h-422zM950 1165l66 281h420l-64 -281h-422z " />
<glyph unicode="&#xfb02;" horiz-adv-x="1284" d="M37 0l186 836h-112l47 219h112l6 30q22 114 51 186t78.5 122.5t122 71t181.5 20.5q103 0 223 -27l-55 -264q-38 6 -60 6q-55 0 -80.5 -23t-38.5 -85l-8 -37h125l-49 -219h-123l-188 -836h-418zM688 0l332 1446h420l-332 -1446h-420z" />
<glyph horiz-adv-x="2048" />
<glyph horiz-adv-x="2048" />
<glyph unicode="&#xd;" horiz-adv-x="2048" />
<glyph unicode=" "  horiz-adv-x="641" />
<glyph unicode="&#x09;" horiz-adv-x="641" />
<glyph unicode="&#xa0;" horiz-adv-x="641" />
<glyph unicode="!" horiz-adv-x="698" d="M102 0l82 379h381l-82 -379h-381zM317 999l103 447h391l-102 -447l-230 -499h-160z" />
<glyph unicode="&#x22;" horiz-adv-x="626" d="M227 891l72 631h225l-217 -631h-80zM553 891l72 631h225l-217 -631h-80z" />
<glyph unicode="#" horiz-adv-x="1347" d="M88 381l57 254h224l61 194h-211l57 254h234l115 363h256l-115 -363h203l112 363h258l-114 -363h190l-55 -254h-217l-60 -194h207l-57 -254h-229l-121 -381h-256l121 381h-203l-121 -381h-254l119 381h-201zM623 635h202l64 194h-205z" />
<glyph unicode="$" horiz-adv-x="1372" d="M14 238l314 219q38 -54 96.5 -91t122.5 -53l65 228l-34 12q-73 26 -121 47t-99.5 54t-81 70t-48.5 91.5t-19 122.5q0 83 33.5 169t89.5 146q154 170 475 170q39 0 59 -2l37 129h187l-46 -153q128 -27 220.5 -75.5t175.5 -143.5l-291 -224q-42 55 -85.5 83t-109.5 46 l-61 -219q219 -61 326.5 -154.5t107.5 -246.5q0 -227 -181 -364.5t-482 -137.5h-29l-57 -194h-187l62 217q-137 26 -232.5 84.5t-206.5 169.5zM623 1004q0 -33 20 -52.5t78 -40.5l55 193h-16q-137 0 -137 -100zM727 293q23 -4 43 -4q60 0 96.5 30t36.5 80q0 38 -24 59.5 t-91 41.5z" />
<glyph unicode="%" horiz-adv-x="2048" d="M137 854q0 49 6.5 100t22 108t39.5 108t62 98.5t85 81.5t113 54.5t143 20.5q177 0 273 -92.5t96 -261.5q0 -56 -11.5 -123.5t-44.5 -150t-82 -148t-133.5 -110.5t-189.5 -45q-180 0 -279.5 95t-99.5 265zM412 811q0 -115 100 -115q29 0 52.5 12.5t37.5 27.5t27.5 46.5 t19.5 50.5t17 59q0 2 0.5 3t1 3t0.5 3q32 132 32 213q0 119 -96 119q-21 0 -39.5 -7.5t-31.5 -17t-26 -30.5t-19.5 -34t-16.5 -42.5t-13 -41t-12 -44.5q-34 -136 -34 -205zM569 0l871 1446h188l-872 -1446h-187zM1204 342q0 49 6.5 100t22 108t39.5 108t62 98.5t85 81.5 t113 54.5t143 20.5q177 0 273 -92.5t96 -261.5q0 -56 -11.5 -123.5t-44.5 -150t-82 -148t-133.5 -110.5t-189.5 -45q-180 0 -279.5 95t-99.5 265zM1479 299q0 -115 100 -115q29 0 52.5 12.5t37.5 27.5t27.5 46.5t19.5 50.5t17 59q0 2 0.5 3t1 3t0.5 3q32 132 32 213 q0 119 -96 119q-21 0 -39.5 -7.5t-31.5 -17t-26 -30.5t-19.5 -34t-16.5 -42.5t-13 -41t-12 -44.5q-34 -136 -34 -205z" />
<glyph unicode="&#x26;" horiz-adv-x="1570" d="M55 395q0 348 502 504q-41 90 -41 182q0 164 120.5 270.5t307.5 106.5q170 0 278.5 -92.5t108.5 -237.5q0 -125 -82.5 -212t-257.5 -162q49 -110 117 -209q64 75 119 190l293 -121q-68 -133 -108 -186t-118 -125q46 -55 107 -55q1 0 90 14l-98 -272q-93 -21 -160 -21 q-69 0 -123.5 24.5t-108.5 80.5q-167 -117 -421 -117q-113 0 -203.5 25.5t-149.5 68t-98.5 100t-56.5 118.5t-17 126zM453 406q0 -65 45 -104.5t118 -39.5q77 0 209 72q-39 61 -54 86t-37.5 69.5t-47.5 102.5l-12 29l-29 -15q-43 -22 -67.5 -35.5t-51.5 -32.5t-41 -37 t-23 -42t-9 -53zM848 1126q0 -36 31 -114q137 52 137 129q0 32 -21.5 50.5t-58.5 18.5q-41 0 -64.5 -22.5t-23.5 -61.5z" />
<glyph unicode="'" horiz-adv-x="303" d="M227 891l72 631h225l-217 -631h-80z" />
<glyph unicode="(" horiz-adv-x="704" d="M92 483q0 121 29 256q29 133 83 245t146 230q78 99 159 176t189 154q79 57 166 107l117 -162q-222 -174 -338 -322q-113 -147 -176.5 -331.5t-63.5 -368.5q0 -360 193 -655l-160 -152q-87 113 -125 168q-219 311 -219 655z" />
<glyph unicode=")" horiz-adv-x="704" d="M-170 -184q224 175 338 321q113 147 176.5 332t63.5 369q0 365 -193 655l160 152q87 -113 125 -168q219 -311 219 -656q0 -121 -29 -256q-29 -133 -83 -245t-146 -230q-78 -99 -159 -176t-189 -154q-72 -51 -166 -106z" />
<glyph unicode="*" horiz-adv-x="894" d="M190 1151l127 221l193 -108l51 213l248 -60l-51 -215l229 23l23 -254l-215 -21l86 -184l-232 -109l-94 205l-170 -141l-164 194l154 129z" />
<glyph unicode="+" d="M229 528l72 314h338l90 387h410l-92 -387h350l-70 -314h-350l-90 -397h-408l88 397h-338z" />
<glyph unicode="," horiz-adv-x="512" d="M-115 -377l49 201q74 24 106.5 59.5t59.5 116.5h-123l86 379h388l-64 -277q-52 -227 -164.5 -333t-337.5 -146z" />
<glyph unicode="-" horiz-adv-x="765" d="M76 471l80 350h647l-82 -350h-645z" />
<glyph unicode="." horiz-adv-x="512" d="M-14 0l88 379h379l-86 -379h-381z" />
<glyph unicode="/" horiz-adv-x="999" d="M-104 0l962 1446h395l-960 -1446h-397z" />
<glyph unicode="0" horiz-adv-x="1323" d="M86 549q0 68 10 144t35 163t62 168t95 156.5t130 131t171.5 89t215.5 33.5q265 0 417 -153.5t152 -420.5q0 -62 -10.5 -135t-36 -159.5t-62.5 -168.5t-96 -159t-131 -135t-172 -93t-215 -35q-267 0 -416 152t-149 422zM492 469q0 -89 40.5 -148t126.5 -59q68 0 124 61 t88.5 148t55 189.5t30.5 177.5t8 120q0 95 -41.5 146t-116.5 51q-69 0 -126.5 -61.5t-91 -149t-57 -188.5t-32 -174.5t-8.5 -112.5z" />
<glyph unicode="1" horiz-adv-x="1323" d="M332 899l74 318h47q118 0 206 44t150 146h365l-322 -1407h-424l213 934q-56 -21 -110 -28t-158 -7h-41z" />
<glyph unicode="2" horiz-adv-x="1323" d="M-31 0l62 266l139 82q273 161 475 299q164 114 227.5 190t63.5 162q0 63 -36.5 99.5t-100.5 36.5q-94 0 -154.5 -81.5t-60.5 -207.5v-25l-404 49q114 562 664 562q249 0 392.5 -109.5t143.5 -298.5q0 -164 -99.5 -294t-295.5 -241q-96 -56 -348 -167q458 6 573 6 l-75 -328h-1166z" />
<glyph unicode="3" horiz-adv-x="1323" d="M31 422l397 76q13 -127 66.5 -182.5t160.5 -55.5q97 0 156 49t59 129q0 148 -196 148q-48 0 -113 -11l53 279l29 -2q70 -4 72 -4q119 0 184.5 45t65.5 127q0 63 -43 97t-121 34q-98 0 -151 -45.5t-83 -165.5l-383 25q82 252 230 361.5t403 109.5q259 0 406 -99t147 -274 q0 -127 -73 -213.5t-210 -120.5q209 -75 209 -285q0 -217 -175.5 -345t-471.5 -128q-285 0 -437.5 110.5t-180.5 340.5z" />
<glyph unicode="4" horiz-adv-x="1323" d="M39 293l55 280l801 836h418l-164 -838h178l-53 -278h-178l-58 -293h-401l57 293h-655zM453 571h295l104 471z" />
<glyph unicode="5" horiz-adv-x="1323" d="M49 426l414 43q-2 -21 -2 -27q0 -88 54 -142t140 -54q95 0 155 67t60 174q0 92 -51 144.5t-139 52.5q-60 0 -100.5 -21.5t-71.5 -68.5l-344 43l227 762h1043l-86 -293h-717l-58 -197q102 64 258 64q212 0 340.5 -119.5t128.5 -316.5q0 -47 -8 -96t-29 -106.5t-53 -109 t-85.5 -100.5t-121 -84t-164.5 -56.5t-212 -21.5q-276 0 -422 116.5t-156 346.5z" />
<glyph unicode="6" horiz-adv-x="1323" d="M96 524q0 300 148 561q97 169 254.5 259t359.5 90q233 0 378 -106.5t167 -293.5l-412 -35v15q0 69 -43 107t-121 38q-115 0 -189 -88t-114 -268q54 66 141 98.5t183 32.5q214 0 342.5 -116.5t128.5 -309.5q0 -243 -173 -391t-458 -148q-276 0 -434 148t-158 407zM494 434 q0 -94 57 -144t133 -50q98 0 163.5 70.5t65.5 174.5q0 86 -50.5 138.5t-135.5 52.5q-98 0 -165.5 -70.5t-67.5 -171.5z" />
<glyph unicode="7" horiz-adv-x="1323" d="M178 0q119 278 321.5 572t428.5 520h-678l74 319h1122l-57 -268q-544 -472 -771 -1143h-440z" />
<glyph unicode="8" horiz-adv-x="1323" d="M53 362q0 148 74.5 248.5t232.5 155.5q-64 51 -91 101.5t-27 121.5q0 210 159 329.5t430 119.5q261 0 404 -90t143 -254q0 -117 -53.5 -205.5t-179.5 -159.5q170 -90 170 -268q0 -229 -177.5 -358.5t-492.5 -129.5q-285 0 -438.5 101t-153.5 288zM463 403 q0 -81 57.5 -122t141.5 -41q105 0 174 46.5t69 147.5q0 78 -56 121t-157 43q-106 0 -167.5 -52t-61.5 -143zM623 1010q0 -68 46.5 -102t116.5 -34q56 0 99.5 13.5t74.5 50.5t31 94q0 65 -45.5 100t-130.5 35q-89 0 -140.5 -42.5t-51.5 -114.5z" />
<glyph unicode="9" horiz-adv-x="1323" d="M53 379l412 35v-13q0 -75 43 -115t125 -40q115 0 186.5 85t114.5 271q-107 -123 -332 -123q-198 0 -325 116t-127 296q0 241 173.5 393t448.5 152q274 0 432 -148.5t158 -406.5q0 -310 -145 -572q-188 -338 -599 -338q-250 0 -394.5 104t-170.5 304zM549 926 q0 -85 50.5 -136t135.5 -51q98 0 163 67.5t65 168.5q0 82 -50 136t-129 54q-103 0 -169 -67.5t-66 -171.5z" />
<glyph unicode=":" horiz-adv-x="563" d="M33 0l86 379h381l-86 -379h-381zM186 674l86 381h381l-88 -381h-379z" />
<glyph unicode=";" horiz-adv-x="563" d="M-63 -377l49 201q77 25 108 59.5t58 116.5h-123l86 379h387l-64 -277q-54 -230 -164.5 -334.5t-336.5 -144.5zM182 674l88 379h379l-86 -379h-381z" />
<glyph unicode="&#x3c;" d="M256 522l90 367l1047 414l-101 -404l-633 -223l529 -260l-90 -377z" />
<glyph unicode="=" d="M174 252l74 315h1077l-74 -315h-1077zM283 721l73 315h1078l-74 -315h-1077z" />
<glyph unicode="&#x3e;" d="M217 35l100 403l633 224l-526 260l88 376l842 -483l-90 -366z" />
<glyph unicode="?" horiz-adv-x="1210" d="M207 1065q64 203 210.5 302t379.5 99q244 0 387 -102t143 -274q0 -126 -69 -214.5t-220 -154.5l-69 -31q-99 -44 -137.5 -66.5t-56 -47t-25.5 -72.5h-367v12q0 83 33 141q25 42 73.5 81t163.5 104l90 51q84 49 115 83t31 77q0 46 -29.5 73t-79.5 27q-69 0 -116.5 -46 t-67.5 -134zM276 0l82 379h381l-82 -379h-381z" />
<glyph unicode="@" horiz-adv-x="1740" d="M102 471q0 200 79.5 382.5t213 315t318.5 211t387 78.5q281 0 446.5 -156.5t165.5 -420.5q0 -195 -73.5 -368t-196.5 -276.5t-262 -103.5q-71 0 -120 37.5t-59 101.5q-119 -137 -260 -137q-129 0 -207.5 91.5t-78.5 240.5q0 152 67 292t178 225t232 85q70 0 120 -27.5 t93 -95.5l24 82h213l-100 -401q-39 -159 -43 -230q0 -47 35 -47q33 0 96 82q63 86 99 199t36 225q0 195 -118.5 305.5t-329.5 110.5q-148 0 -285 -63.5t-237 -169t-160 -250.5t-60 -302q0 -172 76 -297.5t209.5 -189t308.5 -63.5q342 0 664 286l110 -145 q-94 -79 -144.5 -116t-119.5 -77q-253 -141 -526 -141q-258 0 -459 119q-332 192 -332 608zM698 494q0 -71 31 -111.5t86 -40.5q61 0 120 55.5t94.5 140t35.5 167.5q0 73 -33 115t-92 42q-60 0 -116.5 -55.5t-91 -141t-34.5 -171.5z" />
<glyph unicode="A" horiz-adv-x="1536" d="M-100 0l876 1446h506l156 -1446h-469l-4 209h-424l-123 -209h-518zM692 524h266q-8 344 -10 500z" />
<glyph unicode="B" horiz-adv-x="1468" d="M-2 0l328 1446h759q201 0 307.5 -88t106.5 -254q0 -263 -295 -342q117 -38 180.5 -121.5t63.5 -200.5q0 -198 -147.5 -319t-389.5 -121h-913zM506 307h266q111 0 160 42t49 110q0 62 -38 100.5t-116 38.5h-260zM645 889h193q108 0 159.5 32.5t51.5 100.5q0 119 -162 119 h-189z" />
<glyph unicode="C" horiz-adv-x="1540" d="M125 625q0 183 63 342.5t172 272t260 177t322 64.5q257 0 431.5 -111t228.5 -309l-404 -94q-59 170 -233 170q-163 0 -271 -144.5t-108 -363.5q0 -152 70.5 -240t193.5 -88q101 0 173 62t132 200l358 -182q-117 -216 -280.5 -318t-405.5 -102q-114 0 -216 23.5t-192 75 t-154.5 128t-102 188t-37.5 249.5z" />
<glyph unicode="D" horiz-adv-x="1562" d="M0 0l330 1446h571q344 0 512 -143.5t168 -438.5q0 -210 -80 -389.5t-229.5 -299t-343.5 -150.5q-153 -25 -422 -25h-506zM518 309h55q147 0 231 23.5t148 83.5q76 70 120 185.5t44 244.5q0 147 -80 221t-258 74h-69z" />
<glyph unicode="E" horiz-adv-x="1378" d="M0 0l330 1446h1104l-72 -320h-653l-52 -223h629l-72 -317h-628l-62 -264h756l-70 -322h-1210z" />
<glyph unicode="F" horiz-adv-x="1275" d="M0 0l330 1446h1087l-69 -320h-641l-58 -247h615l-72 -318h-614l-127 -561h-451z" />
<glyph unicode="G" horiz-adv-x="1634" d="M125 612q0 167 55 321.5t156 274.5q238 277 643 277q499 0 663 -406l-393 -127q-26 88 -98.5 138.5t-173.5 50.5q-169 0 -281 -143.5t-112 -360.5q0 -164 77 -263.5t205 -99.5q180 0 250 181l10 26h-258l74 328h700l-182 -809h-434l25 104q-143 -143 -357 -143 q-255 0 -412 179.5t-157 471.5z" />
<glyph unicode="H" horiz-adv-x="1536" d="M0 0l330 1446h452l-112 -504h440l115 504h454l-327 -1446h-455l135 594h-444l-135 -594h-453z" />
<glyph unicode="I" horiz-adv-x="638" d="M0 0l330 1446h452l-329 -1446h-453z" />
<glyph unicode="J" horiz-adv-x="796" d="M-70 0l82 356h37q67 0 107 8t66.5 32t40 56t26.5 91l207 903h452l-243 -1079q-45 -205 -153 -286t-327 -81h-295z" />
<glyph unicode="K" horiz-adv-x="1601" d="M0 0l330 1446h448l-121 -522l555 522h519l-654 -621l443 -825h-510l-271 520l-217 -194l-73 -326h-449z" />
<glyph unicode="L" horiz-adv-x="1112" d="M2 0l330 1446h454l-258 -1127h512l-71 -319h-967z" />
<glyph unicode="M" horiz-adv-x="1878" d="M0 0l334 1446h633l-2 -930l421 930h635l-325 -1446h-426l241 999l-485 -999h-356l-19 995l-217 -995h-434z" />
<glyph unicode="N" horiz-adv-x="1470" d="M0 0l332 1446h467l219 -739l166 739h432l-330 -1446h-463l-225 758l-172 -758h-426z" />
<glyph unicode="O" horiz-adv-x="1669" d="M125 602q0 164 63.5 330.5t173.5 290.5q116 128 282 196t364 68q307 0 494.5 -165t187.5 -441q0 -361 -205 -617q-243 -301 -680 -301q-321 0 -500.5 168.5t-179.5 470.5zM586 594q0 -137 70.5 -216t191.5 -79q106 0 194.5 73t139.5 200t51 278q0 135 -71 212t-195 77 q-69 0 -118 -19t-97 -67q-73 -73 -119.5 -201.5t-46.5 -257.5z" />
<glyph unicode="P" horiz-adv-x="1409" d="M0 0l330 1446h622q523 0 523 -430q0 -227 -146 -373q-87 -89 -203 -127.5t-280 -38.5h-287l-108 -477h-451zM627 780h106q91 0 135.5 10t77.5 37q64 55 64 148q0 166 -213 166h-88z" />
<glyph unicode="Q" horiz-adv-x="1753" d="M125 602q0 164 63.5 330.5t173.5 290.5q116 128 282 196t364 68q313 0 497.5 -170t184.5 -459q0 -266 -144 -510q81 -55 126.5 -72t107.5 -20l-140 -340q-6 -2 -16 -2q-144 0 -346 166q-203 -117 -473 -117q-321 0 -500.5 168.5t-179.5 470.5zM586 594q0 -137 70.5 -216 t191.5 -79q106 0 194.5 73t139.5 200t51 278q0 135 -71 212t-195 77q-69 0 -118 -19t-97 -67q-73 -73 -119.5 -201.5t-46.5 -257.5z" />
<glyph unicode="R" d="M0 0l328 1446h571q202 0 293 -16q141 -25 225 -134.5t84 -267.5q0 -173 -94 -293q-44 -56 -98 -89.5t-158 -70.5l258 -575h-487l-191 518h-164l-118 -518h-449zM635 813h199q233 0 233 180q0 77 -50.5 112.5t-160.5 35.5h-147z" />
<glyph unicode="S" horiz-adv-x="1406" d="M-23 297l353 242q32 -108 136.5 -175t233.5 -67q85 0 134 33t49 90q0 46 -37.5 73.5t-143.5 61.5l-133 43q-42 14 -69 23.5t-71.5 29.5t-73.5 40t-63.5 52t-55 67t-34.5 84.5t-14 106.5q0 221 173.5 351.5t469.5 130.5q226 0 379.5 -73t257.5 -230l-338 -228 q-86 195 -315 195q-83 0 -127.5 -25t-44.5 -71q0 -37 29 -60t108 -49l160 -51q81 -26 138 -49t116 -58.5t95 -76.5t58.5 -101t22.5 -133q0 -232 -186.5 -371t-497.5 -139q-507 0 -709 334z" />
<glyph unicode="T" horiz-adv-x="1310" d="M231 1126l80 320h1188l-80 -320h-354l-256 -1126h-455l258 1126h-381z" />
<glyph unicode="U" horiz-adv-x="1468" d="M121 408q0 99 31 231l180 807h452l-186 -828q-27 -130 -27 -167q0 -66 48 -108t124 -42q82 0 134 49q30 28 50.5 79.5t43.5 156.5l192 860h451l-195 -883q-33 -148 -66.5 -240t-92.5 -159q-90 -103 -221.5 -152t-323.5 -49q-277 0 -435.5 119t-158.5 326z" />
<glyph unicode="V" horiz-adv-x="1449" d="M238 1446h448l68 -866l417 866h510l-788 -1446h-494z" />
<glyph unicode="W" horiz-adv-x="2111" d="M238 1446h456l21 -871l334 871h430l-45 -871l399 871h510l-746 -1446h-479l15 815l-359 -815h-481z" />
<glyph unicode="X" horiz-adv-x="1611" d="M-109 0l736 801l-344 645h489l154 -338l278 338h572l-656 -717l387 -729h-497l-187 414l-336 -414h-596z" />
<glyph unicode="Y" horiz-adv-x="1404" d="M203 1446h489l125 -445l297 445h535l-688 -883l-132 -563h-452l139 608z" />
<glyph unicode="Z" horiz-adv-x="1413" d="M-14 0l75 328l826 796h-649l75 322h1219l-78 -334l-823 -790h698l-74 -322h-1269z" />
<glyph unicode="[" horiz-adv-x="612" d="M-66 -295l437 1890h493l-45 -194h-174l-346 -1501h174l-45 -195h-494z" />
<glyph unicode="\" horiz-adv-x="1015" d="M211 1446h330l432 -1483h-328z" />
<glyph unicode="]" horiz-adv-x="612" d="M-141 -293l45 193h174l346 1501h-174l45 194h493l-436 -1888h-493z" />
<glyph unicode="^" d="M160 571l620 875h379l256 -875h-397l-103 521l-323 -521h-432z" />
<glyph unicode="_" horiz-adv-x="1024" d="M-229 -492l61 261h1063l-59 -261h-1065z" />
<glyph unicode="`" horiz-adv-x="598" d="M23 1485h423l129 -281h-235z" />
<glyph unicode="a" horiz-adv-x="1202" d="M6 272q0 99 51 180t144 128q81 41 181.5 60t272.5 30l121 8q12 40 12 63q0 44 -28 68.5t-80 24.5q-54 0 -82 -23.5t-47 -83.5q-360 8 -395 8q43 187 179 271t394 84q241 0 357 -73t116 -224q0 -58 -26 -175l-103 -442q-24 -110 -24 -127q0 -29 6 -49h-367q-12 28 -12 49 q0 35 18 98q-51 -86 -142 -132t-210 -46q-152 0 -244 83t-92 220zM391 313q0 -35 23.5 -54t66.5 -19q83 0 149 46t93 152h-12q-61 0 -115 -6.5t-101.5 -20t-75.5 -39t-28 -59.5z" />
<glyph unicode="b" horiz-adv-x="1320" d="M2 0l332 1446h422l-109 -461q112 100 262 100q178 0 288 -124.5t110 -325.5q0 -163 -72.5 -315t-206.5 -251.5t-295 -99.5q-106 0 -171.5 32.5t-127.5 115.5l-28 -117h-404zM526 440q0 -78 39.5 -127t102.5 -49q88 0 151.5 107.5t63.5 255.5q0 82 -35.5 129t-97.5 47 q-91 0 -157.5 -110t-66.5 -253z" />
<glyph unicode="c" horiz-adv-x="1263" d="M78 479q0 127 50 240t136.5 193.5t207 127.5t255.5 47q206 0 350 -101.5t187 -276.5l-379 -76q-17 79 -55 116t-101 37q-95 0 -159 -90.5t-64 -224.5q0 -98 43.5 -153.5t118.5 -55.5q71 0 117 40.5t81 133.5l363 -94q-78 -183 -226.5 -278t-355.5 -95 q-256 0 -412.5 140.5t-156.5 369.5z" />
<glyph unicode="d" horiz-adv-x="1339" d="M78 414q0 182 81.5 336t222 242.5t306.5 88.5q173 0 264 -110l109 475h424l-332 -1446h-408l19 78q-111 -105 -285 -105q-178 0 -289.5 123t-111.5 318zM514 440q0 -80 38 -128t101 -48q88 0 151.5 107.5t63.5 255.5q0 82 -35.5 129t-97.5 47q-63 0 -115.5 -57.5 t-79 -140t-26.5 -165.5z" />
<glyph unicode="e" horiz-adv-x="1245" d="M78 477q0 62 15 128.5t45.5 135.5t82 130t118.5 109.5t162.5 76.5t207.5 28q241 0 378.5 -135t137.5 -370q0 -66 -8 -121h-725v-13q0 -182 155 -182q63 0 106.5 31.5t77.5 99.5l349 -108q-95 -164 -229 -241t-324 -77q-247 0 -398 139.5t-151 368.5zM518 672h326 q-1 15 -2.5 26t-10.5 35t-23.5 40t-44 29t-69.5 13q-127 0 -176 -143z" />
<glyph unicode="f" horiz-adv-x="686" d="M37 0l186 836h-112l47 219h112l6 30q22 114 51 186t78.5 122.5t122 71t181.5 20.5q103 0 223 -27l-55 -264q-38 6 -60 6q-55 0 -80.5 -23t-38.5 -85l-8 -37h125l-49 -219h-123l-188 -836h-418z" />
<glyph unicode="g" horiz-adv-x="1337" d="M-12 -74q0 30 10 74h434q-2 -12 -2 -27q0 -46 35 -71t98 -25q125 0 162 127l39 135q-55 -57 -116.5 -81.5t-145.5 -24.5q-190 0 -307 115t-117 303q0 175 79.5 321.5t217 230.5t301.5 84q200 0 282 -131l23 99h410l-203 -903q-30 -129 -53 -196t-58 -122 q-145 -231 -557 -231q-253 0 -392.5 84.5t-139.5 238.5zM508 440q0 -78 38 -127t101 -49q88 0 151.5 106.5t63.5 252.5q0 85 -35 132.5t-98 47.5q-53 0 -97 -38.5t-70 -96t-40 -117.5t-14 -111z" />
<glyph unicode="h" horiz-adv-x="1302" d="M0 0l332 1446h418l-119 -520q136 157 362 157q143 0 228.5 -72.5t85.5 -193.5q0 -61 -43 -248l-127 -569h-420l117 522q18 85 18 123q0 52 -29.5 82.5t-79.5 30.5q-142 0 -190 -201l-131 -557h-422z" />
<glyph unicode="i" horiz-adv-x="610" d="M0 0l240 1055h422l-240 -1055h-422zM264 1165l66 281h420l-64 -281h-422z" />
<glyph unicode="j" horiz-adv-x="634" d="M-211 -352l57 262q41 -4 76 -4t51.5 7.5t33 39.5t32.5 102l227 1000h422l-231 -1016q-38 -166 -89.5 -250.5t-139 -120t-242.5 -35.5q-99 0 -197 15zM291 1165l65 281h420l-63 -281h-422z" />
<glyph unicode="k" horiz-adv-x="1292" d="M2 0l328 1446h422l-158 -690l352 299h494l-490 -410l275 -645h-461l-139 395l-140 -110l-67 -285h-416z" />
<glyph unicode="l" horiz-adv-x="598" d="M2 0l332 1446h420l-332 -1446h-420z" />
<glyph unicode="m" horiz-adv-x="1988" d="M0 0l242 1055h417l-28 -129q66 75 157.5 116t192.5 41q108 0 175.5 -36t113.5 -125q97 86 190.5 123.5t210.5 37.5q146 0 232 -71.5t86 -194.5q0 -65 -39 -237l-131 -580h-420l114 522q19 93 19 121q0 52 -27 82.5t-73 30.5q-77 0 -121.5 -60t-73.5 -188l-115 -508h-420 l115 522q19 93 19 121q0 52 -27 82.5t-72 30.5q-36 0 -67 -17t-50 -40t-35 -54.5t-23 -53t-13 -44.5l-127 -547h-422z" />
<glyph unicode="n" horiz-adv-x="1302" d="M0 0l242 1055h417l-28 -129q136 157 362 157q143 0 228.5 -72.5t85.5 -193.5q0 -61 -43 -248l-127 -569h-420l114 522q19 90 19 121q0 52 -29.5 82.5t-79.5 30.5q-77 0 -123.5 -58.5t-76.5 -185.5l-119 -512h-422z" />
<glyph unicode="o" horiz-adv-x="1249" d="M78 477q0 171 81 308.5t223.5 215.5t319.5 78q239 0 386 -135t147 -356q0 -173 -82 -314.5t-226 -222t-321 -80.5q-238 0 -383 138.5t-145 367.5zM487 473q0 -94 39 -148.5t105 -54.5q85 0 141.5 92.5t56.5 229.5q0 39 -7 72.5t-23 63.5t-46 47.5t-71 17.5 q-81 0 -138 -94.5t-57 -225.5z" />
<glyph unicode="p" horiz-adv-x="1331" d="M-88 -385l330 1440h407l-16 -78q113 104 282 104q179 0 290.5 -123t111.5 -319q0 -182 -81.5 -335t-222 -242t-306.5 -89q-173 0 -265 111l-106 -469h-424zM528 428q0 -82 34.5 -129t96.5 -47q70 0 123.5 62t77 142t23.5 156q0 78 -39.5 128.5t-102.5 50.5 q-86 0 -149.5 -107.5t-63.5 -255.5z" />
<glyph unicode="q" horiz-adv-x="1320" d="M70 420q0 97 27.5 194t80.5 181t123 149.5t161 103t189 37.5q97 0 166.5 -34.5t124.5 -112.5l29 117h403l-327 -1440h-424l106 455q-113 -101 -262 -101q-178 0 -287.5 124t-109.5 327zM494 428q0 -83 36 -129.5t99 -46.5q56 0 100.5 39t69.5 98t38 117.5t13 107.5 q0 78 -39 127.5t-102 49.5q-87 0 -151 -108t-64 -255z" />
<glyph unicode="r" horiz-adv-x="843" d="M-14 0l239 1055h420l-33 -154q110 174 289 174q19 0 68 -6l-80 -346h-51q-136 0 -199 -39q-56 -35 -80.5 -80.5t-54.5 -175.5l-96 -428h-422z" />
<glyph unicode="s" horiz-adv-x="1122" d="M-51 231l309 179q46 -72 121 -113t160 -41q123 0 123 55q0 41 -105 72l-53 16q-66 20 -106.5 34t-90 35.5t-78 44t-55 53.5t-38 71t-11.5 90q0 169 132.5 266t365.5 97q190 0 331.5 -62.5t221.5 -181.5l-293 -158q-99 137 -252 137q-90 0 -90 -47q0 -23 26 -37.5 t119 -42.5l70 -20q96 -28 160 -60t99.5 -71t49.5 -81t14 -97q0 -183 -152.5 -292.5t-406.5 -109.5q-185 0 -324.5 64.5t-246.5 199.5z" />
<glyph unicode="t" horiz-adv-x="702" d="M96 227q0 61 35 222l84 387h-111l46 219h112l72 299h422l-70 -299h143l-45 -219h-147l-80 -351q-12 -53 -12 -92q0 -94 110 -94q19 0 33 2l-67 -299q-94 -16 -207 -16q-154 0 -236 62t-82 179z" />
<glyph unicode="u" horiz-adv-x="1302" d="M51 238q0 48 43 247l127 570h420l-115 -523q-18 -88 -18 -120q0 -52 29 -82.5t79 -30.5q76 0 125 60t76 180l119 516h422l-242 -1055h-418l29 127q-138 -156 -362 -156q-143 0 -228.5 73t-85.5 194z" />
<glyph unicode="v" horiz-adv-x="1193" d="M129 1055h428l23 -570l282 570h475l-667 -1055h-428z" />
<glyph unicode="w" horiz-adv-x="1818" d="M129 1055h432l17 -561l241 561h414l6 -561l248 561h475l-610 -1055h-428l10 563l-254 -563h-434z" />
<glyph unicode="x" horiz-adv-x="1300" d="M-80 0l541 563l-234 492h465l78 -195l164 195h508l-512 -527l260 -528h-467l-102 231l-201 -231h-500z" />
<glyph unicode="y" horiz-adv-x="1183" d="M-45 -365l68 308q82 -15 114 -15q46 0 71 15t54 59l-133 1053h428l23 -570l272 570h477l-715 -1143q-70 -113 -128 -172.5t-140 -91t-203 -31.5q-83 0 -188 18z" />
<glyph unicode="z" horiz-adv-x="1114" d="M-39 0l66 289l520 477h-412l70 289h981l-68 -287l-524 -479h440l-67 -289h-1006z" />
<glyph unicode="{" horiz-adv-x="679" d="M51 549l45 201q45 1 73 4t52 13t37.5 22.5t26.5 39.5t21.5 57t19.5 81l75 338q36 162 114.5 229.5t221.5 67.5h195l-45 -197h-31q-23 0 -42.5 -6.5t-32.5 -14.5t-25.5 -27t-19 -32t-15.5 -42.5t-12.5 -45.5t-12.5 -53l-61 -269q-33 -146 -82 -202.5t-154 -73.5 q56 -20 86.5 -64t30.5 -104q0 -65 -18 -145l-49 -213q-23 -104 -23 -138q0 -40 24 -63t68 -23h19l-43 -192h-160q-117 0 -178.5 59t-61.5 170q0 41 29 166l55 240q17 74 17 102q0 56 -33 82.5t-111 32.5z" />
<glyph unicode="|" horiz-adv-x="540" d="M-43 -295l436 1890h320l-437 -1890h-319z" />
<glyph unicode="}" horiz-adv-x="679" d="M-139 -303l45 197h31q18 0 34 4t27.5 8.5t22.5 17t18 20t15.5 28t12 29.5t10.5 36t9.5 36.5t9.5 41.5l62 268q34 147 82 203t153 73q-56 20 -86.5 64t-30.5 104q0 62 19 146l49 213q23 104 23 137q0 40 -24.5 63t-68.5 23h-18l43 193h160q116 0 177.5 -59.5t61.5 -170.5 q0 -46 -28 -166l-56 -239q-16 -70 -16 -103q0 -56 32.5 -82t110.5 -32l-45 -201q-62 -2 -97 -9.5t-61 -33.5t-40.5 -64t-30.5 -110l-76 -338q-36 -162 -114.5 -229.5t-221.5 -67.5h-194z" />
<glyph unicode="~" d="M141 758q83 112 155 157.5t171 45.5q52 0 102 -15t133 -53l129 -59q71 -32 101 -42t59 -10q66 0 121.5 34.5t130.5 127.5l98 -326q-89 -110 -168.5 -156t-166.5 -46q-49 0 -103.5 17t-146.5 61l-74 34q-137 64 -211 64q-59 0 -98.5 -26.5t-112.5 -112.5l-20 -25z" />
<glyph unicode="&#xa1;" horiz-adv-x="698" d="M27 0l102 446l229 500h160l2 -500l-102 -446h-391zM272 1067l84 379h379l-82 -379h-381z" />
<glyph unicode="&#xa2;" horiz-adv-x="1292" d="M106 485q0 263 171 427t456 173l60 256h206l-61 -278q130 -28 225 -123.5t129 -230.5l-379 -76q-17 79 -54.5 116t-100.5 37q-95 0 -159 -90.5t-64 -224.5q0 -98 43 -153.5t120 -55.5q69 0 115.5 40.5t81.5 133.5l362 -94q-153 -367 -575 -373l-57 -254h-207l61 273 q-174 50 -273.5 182t-99.5 315z" />
<glyph unicode="&#xa3;" horiz-adv-x="1527" d="M-23 231q0 123 88 197t234 74q80 0 193 -29q-6 86 -35 156h-287l43 190h170q-23 62 -31 97.5t-8 80.5q0 200 162.5 313t449.5 113q487 0 572 -372l-361 -144q-26 108 -73 158.5t-133 50.5q-85 0 -135 -44t-50 -118q0 -49 29 -135h344l-47 -190h-244q19 -97 19 -142 q0 -52 -23 -108l37 -21q77 -43 127 -43q49 0 73 34.5t33 117.5q355 6 404 6q-32 -260 -138.5 -379t-295.5 -119q-81 0 -155 24.5t-208 94.5l-59 31q-194 -152 -381 -152q-142 0 -228 70.5t-86 187.5zM238 225q0 -22 16.5 -34.5t44.5 -12.5q72 0 152 68q-3 0 -13 6 q-58 33 -114 33q-40 0 -63 -16t-23 -44z" />
<glyph unicode="&#xa4;" horiz-adv-x="1456" d="M41 274l190 162q-43 114 -43 209q0 181 113 352l-143 174l266 226l145 -172q135 63 269 63q158 0 297 -92l194 166l203 -244l-191 -162q43 -102 43 -192q0 -211 -116 -377l147 -178l-268 -225l-150 178q-121 -58 -256 -58q-92 0 -162 21t-143 70l-192 -164zM551 668 q0 -95 61 -158.5t152 -63.5q104 0 180 81.5t76 193.5q0 97 -60.5 160t-152.5 63q-106 0 -181 -80.5t-75 -195.5z" />
<glyph unicode="&#xa5;" horiz-adv-x="1622" d="M160 336l57 250h406l2 14l-60 129h-315l57 250h142l-211 451h514l170 -488l393 488h543l-420 -451h141l-57 -250h-318l-121 -129l-2 -14h408l-57 -250h-410l-76 -336h-459l78 336h-405z" />
<glyph unicode="&#xa6;" horiz-adv-x="536" d="M-47 -295l180 805h316l-181 -805h-315zM201 793l182 804h315l-182 -804h-315z" />
<glyph unicode="&#xa7;" horiz-adv-x="1241" d="M29 -70l209 232q189 -148 323 -148q49 0 78 19t29 51q0 25 -18 42.5t-70 43.5l-271 135q-102 51 -158.5 133t-56.5 180q0 248 293 338q-51 84 -51 162q0 164 125 263.5t332 99.5q150 0 271 -46.5t236 -146.5l-208 -217q-170 150 -314 150q-40 0 -64 -17.5t-24 -46.5 q0 -26 24 -50t54 -38l111 -53q68 -32 115 -58.5t98.5 -64t82.5 -75t51.5 -88.5t20.5 -109q0 -119 -71.5 -210t-206.5 -143q49 -76 49 -168q0 -158 -135 -260t-346 -102q-293 0 -508 192zM395 711q0 -33 28 -61.5t95 -63.5l78 -41q56 -29 233 -131q123 25 123 110 q0 40 -26 64.5t-103 66.5l-288 158q-140 -16 -140 -102z" />
<glyph unicode="&#xa8;" horiz-adv-x="598" d="M-150 1227l54 243h342l-53 -243h-343zM352 1227l56 243h340l-56 -243h-340z" />
<glyph unicode="&#xa9;" horiz-adv-x="1705" d="M188 725q0 200 96.5 367t263.5 263.5t367 96.5q153 0 289 -57t233 -154.5t153.5 -233.5t56.5 -288q0 -201 -98 -368t-266 -262t-368 -95t-367 97t-263.5 265t-96.5 369zM254 723q0 -182 88.5 -334.5t241 -241t334.5 -88.5q179 0 332 89t242 241t89 330q0 185 -87.5 338 t-239 241t-334.5 88q-137 0 -260.5 -52t-212 -140.5t-141 -211.5t-52.5 -259zM453 676q0 149 67 272.5t185 194.5t260 71q301 0 411 -258l-254 -73q-38 102 -147 102q-106 0 -174 -88t-68 -223q0 -95 48.5 -153t127.5 -58q60 0 100.5 31t80.5 106l225 -117 q-69 -121 -175.5 -184t-240.5 -63q-196 0 -321 123t-125 317z" />
<glyph unicode="&#xaa;" horiz-adv-x="847" d="M158 928q0 119 94.5 185t300.5 79l121 8q6 34 6 43q0 62 -78 62q-38 0 -57 -15.5t-31 -56.5q-219 2 -260 4q25 126 114.5 183t262.5 57t251.5 -48.5t78.5 -154.5q0 -27 -17 -105l-67 -307q-7 -33 -15 -84q0 -21 4 -35h-248q-8 19 -8 35q0 17 13 64q-70 -121 -236 -121 q-103 0 -166 57.5t-63 149.5zM422 954q0 -51 59 -51q61 0 98.5 32t59.5 103h-8q-209 0 -209 -84z" />
<glyph unicode="&#xab;" horiz-adv-x="804" d="M59 473l76 352l371 256l-72 -333l-203 -119l144 -152l-64 -291zM438 473l76 352l371 256l-74 -333l-201 -119l144 -152l-64 -291z" />
<glyph unicode="&#xac;" d="M166 518l72 324h1159l-176 -779h-410l104 455h-749z" />
<glyph unicode="&#xad;" horiz-adv-x="765" d="M76 471l80 350h647l-82 -350h-645z" />
<glyph unicode="&#xae;" horiz-adv-x="1705" d="M188 725q0 200 96.5 367t263.5 263.5t367 96.5q153 0 289 -57t233 -154.5t153.5 -233.5t56.5 -288q0 -201 -98 -368t-266 -262t-368 -95t-367 97t-263.5 265t-96.5 369zM254 723q0 -182 88.5 -334.5t241 -241t334.5 -88.5q179 0 332 89t242 241t89 330q0 185 -87.5 338 t-239 241t-334.5 88q-137 0 -260.5 -52t-212 -140.5t-141 -211.5t-52.5 -259zM471 272l188 914h302q127 0 200 -15q86 -17 135.5 -81t49.5 -156q0 -109 -50 -181.5t-161 -117.5l155 -363h-286l-117 328h-78l-70 -328h-268zM848 791h88q73 0 106 25.5t33 82.5q0 46 -26 67 t-84 21h-78z" />
<glyph unicode="&#xaf;" horiz-adv-x="598" d="M-102 1225l45 209h757l-49 -209h-753z" />
<glyph unicode="&#xb0;" horiz-adv-x="724" d="M180 1171q0 148 102 250.5t250 102.5q150 0 251.5 -100.5t101.5 -249.5q0 -148 -102 -252.5t-248 -104.5q-148 0 -251.5 103t-103.5 251zM420 1176q0 -47 34 -81t81 -34q46 0 80 33.5t34 79.5t-34 80t-80 34q-49 0 -82 -32.5t-33 -79.5z" />
<glyph unicode="&#xb1;" d="M111 0l71 315h1100l-74 -315h-1097zM289 782l69 314h338l82 350h410l-82 -350h348l-70 -314h-348l-82 -362h-409l82 362h-338z" />
<glyph unicode="&#xb2;" horiz-adv-x="894" d="M152 498l49 200l256 187q219 162 219 243q0 34 -23 54t-61 20q-53 0 -77.5 -38t-25.5 -124l-237 29q49 342 373 342q143 0 232 -74t89 -192q0 -117 -79 -209t-261 -201l-78 -47q324 4 365 4l-47 -194h-694z" />
<glyph unicode="&#xb3;" horiz-adv-x="894" d="M156 776q0 17 2 29l256 24q0 -7 -1 -17t-1 -13q0 -53 28.5 -84t77.5 -31q44 0 72 26.5t28 69.5q0 40 -25.5 64t-68.5 24q-2 0 -11 -1t-15 -1l37 170q18 -4 43 -4q54 0 84 27t30 74q0 37 -25 60.5t-65 23.5q-46 0 -70 -28.5t-30 -90.5l-240 28q25 139 119 213t246 74 q146 0 238.5 -70t92.5 -180q0 -164 -194 -205q71 -32 101 -75.5t30 -112.5q0 -129 -103.5 -209t-271.5 -80q-167 0 -265.5 80t-98.5 215z" />
<glyph unicode="&#xb4;" horiz-adv-x="598" d="M-18 1204l215 283h419l-397 -283h-237z" />
<glyph unicode="&#xb5;" horiz-adv-x="1384" d="M-78 -442l334 1497h422l-123 -551q-14 -69 -14 -94q0 -62 30 -96.5t84 -34.5q77 0 125.5 83t100.5 308l90 385h422l-150 -670q-6 -24 -6 -49q0 -53 53 -53q26 0 64 14l-68 -297q-119 -29 -223 -29q-103 0 -162.5 33t-89.5 127q-40 -79 -87.5 -113t-119.5 -34 q-66 0 -99.5 28t-39.5 88l-119 -542h-424z" />
<glyph unicode="&#xb6;" horiz-adv-x="1304" d="M252 965q0 121 54.5 225.5t150.5 167.5q74 48 167.5 68t247.5 20h500l-45 -197h-74l-366 -1591h-209l366 1591h-202l-367 -1591h-211l217 940q-229 119 -229 367z" />
<glyph unicode="&#xb7;" horiz-adv-x="512" d="M76 403l86 379h381l-86 -379h-381z" />
<glyph unicode="&#xb8;" horiz-adv-x="598" d="M70 -420l24 115q31 -8 53 -8q37 0 63 14.5t26 36.5q0 29 -46 29q-24 0 -81 -13l14 60l192 213h111l-94 -133q36 4 53 4q69 0 106 -30.5t37 -86.5q0 -94 -90 -153.5t-231 -59.5q-58 0 -137 12z" />
<glyph unicode="&#xb9;" horiz-adv-x="894" d="M328 1096l47 202q128 3 178.5 23t85.5 84h207l-209 -907h-279l144 610q-55 -14 -129 -14q-25 0 -45 2z" />
<glyph unicode="&#xba;" horiz-adv-x="847" d="M172 1065q0 178 124.5 295t315.5 117q169 0 272 -92.5t103 -243.5q0 -180 -126.5 -301t-315.5 -121q-168 0 -270.5 95t-102.5 251zM465 1067q0 -66 27 -104.5t73 -38.5q57 0 94 60.5t37 154.5q0 66 -26 103.5t-72 37.5q-59 0 -96 -61.5t-37 -151.5z" />
<glyph unicode="&#xbb;" horiz-adv-x="804" d="M6 188l74 334l201 119l-142 152l62 292l254 -286l-76 -355zM385 188l74 334l200 119l-143 152l64 292l251 -286l-75 -355z" />
<glyph unicode="&#xbc;" horiz-adv-x="2039" d="M328 1096l47 202q128 3 178.5 23t85.5 84h207l-209 -907h-279l144 610q-55 -14 -129 -14q-25 0 -45 2zM543 0l870 1446h189l-873 -1446h-186zM1124 184l45 209l461 516h307l-120 -522h122l-45 -203h-122l-43 -184h-271l43 184h-377zM1382 387h168l92 324z" />
<glyph unicode="&#xbd;" horiz-adv-x="2039" d="M328 1096l47 202q128 3 178.5 23t85.5 84h207l-209 -907h-279l144 610q-55 -14 -129 -14q-25 0 -45 2zM543 0l870 1446h189l-873 -1446h-186zM1182 0l49 201l256 186q219 162 219 244q0 34 -23 54t-61 20q-53 0 -77 -38t-25 -124l-238 28q49 342 373 342q143 0 232 -74 t89 -192q0 -117 -78.5 -208.5t-261.5 -200.5l-77 -48q323 5 364 5l-47 -195h-694z" />
<glyph unicode="&#xbe;" horiz-adv-x="2039" d="M145 788q0 17 2 31l256 25v-31q0 -54 28.5 -85.5t76.5 -31.5q46 0 73 27t27 72q0 39 -25 62.5t-67 23.5h-27l35 168q22 -5 43 -5q54 0 84.5 27t30.5 76q0 37 -25 59.5t-65 22.5q-46 0 -70 -28t-30 -89l-240 27q25 140 119 214t247 74q145 0 237.5 -70.5t92.5 -180.5 q0 -165 -194 -203q70 -32 100.5 -77t30.5 -114q0 -129 -103 -207.5t-272 -78.5q-168 0 -266.5 78.5t-98.5 213.5zM584 0l870 1446h188l-872 -1446h-186zM1149 184l45 209l461 516h307l-121 -522h123l-45 -203h-123l-43 -184h-270l43 184h-377zM1407 387h168l92 324z" />
<glyph unicode="&#xbf;" horiz-adv-x="1210" d="M29 356q0 126 69 214.5t219 154.5l70 31q99 44 137.5 66.5t56 47t25.5 72.5h367v-12q0 -84 -33 -142q-24 -42 -73 -80.5t-165 -103.5l-90 -51q-83 -46 -114 -81t-31 -79q0 -46 29.5 -73t78.5 -27q69 0 117 46.5t68 133.5l389 -92q-64 -203 -210.5 -302t-379.5 -99 q-244 0 -387 102t-143 274zM616 1067l82 379h381l-82 -379h-381z" />
<glyph unicode="&#xc0;" horiz-adv-x="1536" d="M-100 0l876 1446h506l156 -1446h-469l-4 209h-424l-123 -209h-518zM649 1790h445l110 -246h-268zM692 524h266q-8 344 -10 500z" />
<glyph unicode="&#xc1;" horiz-adv-x="1536" d="M-100 0l876 1446h506l156 -1446h-469l-4 209h-424l-123 -209h-518zM692 524h266q-8 344 -10 500zM870 1544l183 246h444l-356 -246h-271z" />
<glyph unicode="&#xc2;" horiz-adv-x="1536" d="M-100 0l876 1446h506l156 -1446h-469l-4 209h-424l-123 -209h-518zM668 1540l264 252h330l122 -252h-284l-31 117l-102 -117h-299zM692 524h266q-8 344 -10 500z" />
<glyph unicode="&#xc3;" horiz-adv-x="1536" d="M-100 0l876 1446h506l156 -1446h-469l-4 209h-424l-123 -209h-518zM676 1538q36 143 93 212t144 69q56 0 144 -37l57 -25q50 -20 70 -20q23 0 34 17.5t23 60.5h193q-34 -144 -93.5 -215.5t-136.5 -71.5q-60 0 -135 33l-70 30q-50 23 -71 23q-46 0 -62 -76h-190zM692 524 h266q-8 344 -10 500z" />
<glyph unicode="&#xc4;" horiz-adv-x="1536" d="M-100 0l876 1446h506l156 -1446h-469l-4 209h-424l-123 -209h-518zM637 1550l57 244h334l-55 -244h-336zM692 524h266q-8 344 -10 500zM1106 1550l55 244h336l-55 -244h-336z" />
<glyph unicode="&#xc5;" horiz-adv-x="1536" d="M-100 0l876 1446h506l156 -1446h-469l-4 209h-424l-123 -209h-518zM692 524h266q-8 344 -10 500zM801 1708q0 89 66 147t167 58q104 0 172 -58t68 -147q0 -88 -67 -147.5t-165 -59.5q-107 0 -174 58t-67 149zM963 1708q0 -31 22 -52.5t53 -21.5q29 0 50.5 21.5t21.5 52.5 t-21.5 51.5t-52.5 20.5t-52 -20.5t-21 -51.5z" />
<glyph unicode="&#xc6;" horiz-adv-x="2283" d="M-100 0l1056 1446h1383l-72 -320h-596l-51 -223h571l-71 -317h-572l-61 -264h698l-69 -322h-1153l63 258h-385l-176 -258h-565zM856 573h242l131 564z" />
<glyph unicode="&#xc7;" horiz-adv-x="1540" d="M125 625q0 183 63 342.5t172 272t260 177t322 64.5q257 0 431.5 -111t228.5 -309l-404 -94q-59 170 -233 170q-163 0 -271 -144.5t-108 -363.5q0 -152 70.5 -240t193.5 -88q101 0 173 62t132 200l358 -182q-119 -216 -278 -318t-401 -102h-29l-53 -76q27 4 55 4 q71 0 109 -31t38 -89q0 -100 -92.5 -163t-238.5 -63q-57 0 -144 15l27 118q33 -8 55 -8q37 0 64.5 15.5t27.5 37.5q0 31 -49 31q-32 0 -84 -12l15 63l151 166l-18 4q-543 120 -543 652z" />
<glyph unicode="&#xc8;" horiz-adv-x="1378" d="M0 0l330 1446h1104l-72 -320h-653l-52 -223h629l-72 -317h-628l-62 -264h756l-70 -322h-1210zM492 1790h444l111 -246h-269z" />
<glyph unicode="&#xc9;" horiz-adv-x="1378" d="M0 0l330 1446h1104l-72 -320h-653l-52 -223h629l-72 -317h-628l-62 -264h756l-70 -322h-1210zM709 1544l182 246h444l-356 -246h-270z" />
<glyph unicode="&#xca;" horiz-adv-x="1378" d="M0 0l330 1446h1104l-72 -320h-653l-52 -223h629l-72 -317h-628l-62 -264h756l-70 -322h-1210zM528 1540l265 252h329l123 -252h-284l-31 117l-103 -117h-299z" />
<glyph unicode="&#xcb;" horiz-adv-x="1378" d="M0 0l330 1446h1104l-72 -320h-653l-52 -223h629l-72 -317h-628l-62 -264h756l-70 -322h-1210zM502 1550l57 244h334l-55 -244h-336zM971 1550l55 244h336l-55 -244h-336z" />
<glyph unicode="&#xcc;" horiz-adv-x="638" d="M0 0l330 1446h452l-329 -1446h-453zM199 1790h444l111 -246h-269z" />
<glyph unicode="&#xcd;" horiz-adv-x="638" d="M0 0l330 1446h452l-329 -1446h-453zM371 1544l182 246h444l-356 -246h-270z" />
<glyph unicode="&#xce;" horiz-adv-x="638" d="M0 0l330 1446h452l-329 -1446h-453zM195 1540l264 252h329l123 -252h-284l-31 117l-102 -117h-299z" />
<glyph unicode="&#xcf;" horiz-adv-x="638" d="M0 0l330 1446h452l-329 -1446h-453zM172 1550l57 244h334l-55 -244h-336zM641 1550l55 244h336l-55 -244h-336z" />
<glyph unicode="&#xd0;" horiz-adv-x="1562" d="M0 0l141 618h-129l60 263h129l129 565h571q344 0 512 -143.5t168 -438.5q0 -210 -80 -389.5t-229.5 -299t-343.5 -150.5q-153 -25 -422 -25h-506zM518 309h55q147 0 231 23.5t148 83.5q76 70 120 185.5t44 244.5q0 149 -79.5 222t-258.5 73h-69l-60 -260h273l-60 -263 h-272z" />
<glyph unicode="&#xd1;" horiz-adv-x="1470" d="M0 0l332 1446h467l219 -739l166 739h432l-330 -1446h-463l-225 758l-172 -758h-426zM645 1538q36 143 93.5 212t144.5 69q55 0 143 -37l57 -25q50 -20 70 -20q23 0 34 17.5t23 60.5h193q-34 -144 -93 -215.5t-136 -71.5q-61 0 -136 33l-69 30q-50 23 -72 23 q-45 0 -61 -76h-191z" />
<glyph unicode="&#xd2;" horiz-adv-x="1669" d="M125 602q0 164 63.5 330.5t173.5 290.5q116 128 282 196t364 68q307 0 494.5 -165t187.5 -441q0 -361 -205 -617q-243 -301 -680 -301q-321 0 -500.5 168.5t-179.5 470.5zM586 594q0 -137 70.5 -216t191.5 -79q106 0 194.5 73t139.5 200t51 278q0 135 -71 212t-195 77 q-69 0 -118 -19t-97 -67q-73 -73 -119.5 -201.5t-46.5 -257.5zM639 1790h444l111 -246h-268z" />
<glyph unicode="&#xd3;" horiz-adv-x="1669" d="M125 602q0 164 63.5 330.5t173.5 290.5q116 128 282 196t364 68q307 0 494.5 -165t187.5 -441q0 -361 -205 -617q-243 -301 -680 -301q-321 0 -500.5 168.5t-179.5 470.5zM586 594q0 -137 70.5 -216t191.5 -79q106 0 194.5 73t139.5 200t51 278q0 135 -71 212t-195 77 q-69 0 -118 -19t-97 -67q-73 -73 -119.5 -201.5t-46.5 -257.5zM791 1544l182 246h444l-356 -246h-270z" />
<glyph unicode="&#xd4;" horiz-adv-x="1669" d="M125 602q0 164 63.5 330.5t173.5 290.5q116 128 282 196t364 68q307 0 494.5 -165t187.5 -441q0 -361 -205 -617q-243 -301 -680 -301q-321 0 -500.5 168.5t-179.5 470.5zM586 594q0 -137 70.5 -216t191.5 -79q106 0 194.5 73t139.5 200t51 278q0 135 -71 212t-195 77 q-69 0 -118 -19t-97 -67q-73 -73 -119.5 -201.5t-46.5 -257.5zM645 1540l264 252h330l123 -252h-285l-30 117l-103 -117h-299z" />
<glyph unicode="&#xd5;" horiz-adv-x="1669" d="M125 602q0 164 63.5 330.5t173.5 290.5q116 128 282 196t364 68q307 0 494.5 -165t187.5 -441q0 -361 -205 -617q-243 -301 -680 -301q-321 0 -500.5 168.5t-179.5 470.5zM586 594q0 -137 70.5 -216t191.5 -79q106 0 194.5 73t139.5 200t51 278q0 135 -71 212t-195 77 q-69 0 -118 -19t-97 -67q-73 -73 -119.5 -201.5t-46.5 -257.5zM657 1538q36 143 93.5 212t144.5 69q55 0 143 -37l58 -25q50 -20 69 -20q23 0 34.5 18t23.5 60h192q-34 -144 -93 -215.5t-136 -71.5q-60 0 -135 33l-70 30q-50 23 -72 23q-45 0 -61 -76h-191z" />
<glyph unicode="&#xd6;" horiz-adv-x="1669" d="M125 602q0 164 63.5 330.5t173.5 290.5q116 128 282 196t364 68q307 0 494.5 -165t187.5 -441q0 -361 -205 -617q-243 -301 -680 -301q-321 0 -500.5 168.5t-179.5 470.5zM586 594q0 -137 70.5 -216t191.5 -79q106 0 194.5 73t139.5 200t51 278q0 135 -71 212t-195 77 q-69 0 -118 -19t-97 -67q-73 -73 -119.5 -201.5t-46.5 -257.5zM608 1550l58 244h333l-55 -244h-336zM1077 1550l56 244h335l-55 -244h-336z" />
<glyph unicode="&#xd7;" d="M229 426l310 252l-222 270l310 252l221 -270l311 254l197 -242l-312 -254l224 -274l-310 -252l-223 276l-309 -252z" />
<glyph unicode="&#xd8;" horiz-adv-x="1669" d="M125 602q0 164 63.5 330.5t173.5 290.5q116 128 281.5 196t360.5 68q211 0 364 -78l113 133l143 -102l-111 -131q91 -90 134 -198.5t43 -252.5q0 -164 -52.5 -317t-152.5 -277q-240 -301 -680 -301q-212 0 -373 80l-119 -141l-143 102l119 139q-164 173 -164 459z M575 584q0 -42 11 -90l530 620q-60 35 -149 35q-110 0 -200 -73t-141 -202.5t-51 -289.5zM684 336q68 -47 164 -47q108 0 199 75.5t143.5 205t52.5 282.5q0 58 -18 121z" />
<glyph unicode="&#xd9;" horiz-adv-x="1468" d="M121 408q0 99 31 231l180 807h452l-186 -828q-27 -130 -27 -167q0 -66 48 -108t124 -42q82 0 134 49q30 28 50.5 79.5t43.5 156.5l192 860h451l-195 -883q-33 -148 -66.5 -240t-92.5 -159q-90 -103 -221.5 -152t-323.5 -49q-277 0 -435.5 119t-158.5 326zM614 1790h445 l110 -246h-268z" />
<glyph unicode="&#xda;" horiz-adv-x="1468" d="M121 408q0 99 31 231l180 807h452l-186 -828q-27 -130 -27 -167q0 -66 48 -108t124 -42q82 0 134 49q30 28 50.5 79.5t43.5 156.5l192 860h451l-195 -883q-33 -148 -66.5 -240t-92.5 -159q-90 -103 -221.5 -152t-323.5 -49q-277 0 -435.5 119t-158.5 326zM764 1544 l182 246h445l-357 -246h-270z" />
<glyph unicode="&#xdb;" horiz-adv-x="1468" d="M121 408q0 99 31 231l180 807h452l-186 -828q-27 -130 -27 -167q0 -66 48 -108t124 -42q82 0 134 49q30 28 50.5 79.5t43.5 156.5l192 860h451l-195 -883q-33 -148 -66.5 -240t-92.5 -159q-90 -103 -221.5 -152t-323.5 -49q-277 0 -435.5 119t-158.5 326zM612 1540 l265 252h329l123 -252h-285l-30 117l-103 -117h-299z" />
<glyph unicode="&#xdc;" horiz-adv-x="1468" d="M121 408q0 99 31 231l180 807h452l-186 -828q-27 -130 -27 -167q0 -66 48 -108t124 -42q82 0 134 49q30 28 50.5 79.5t43.5 156.5l192 860h451l-195 -883q-33 -148 -66.5 -240t-92.5 -159q-90 -103 -221.5 -152t-323.5 -49q-277 0 -435.5 119t-158.5 326zM584 1550 l57 244h334l-55 -244h-336zM1053 1550l55 244h336l-55 -244h-336z" />
<glyph unicode="&#xdd;" horiz-adv-x="1404" d="M203 1446h489l125 -445l297 445h535l-688 -883l-132 -563h-452l139 608zM700 1544l183 246h444l-356 -246h-271z" />
<glyph unicode="&#xde;" horiz-adv-x="1409" d="M0 0l330 1446h450l-47 -217h117q159 0 243 -15.5t152 -56.5q180 -112 180 -358q0 -225 -145 -373q-89 -92 -212.5 -129t-336.5 -37h-223l-57 -260h-451zM578 563h104q94 0 138.5 9.5t76.5 37.5q61 52 61 148q0 166 -213 166h-86z" />
<glyph unicode="&#xdf;" horiz-adv-x="1255" d="M0 0l236 1034q50 219 194.5 327.5t362.5 108.5q216 0 335 -89t119 -251q0 -120 -57.5 -191.5t-181.5 -113.5q225 -87 225 -329q0 -112 -40.5 -209t-112.5 -168t-179 -111.5t-233 -40.5q-70 0 -172 21l65 299q49 -15 90 -15q86 0 140.5 63t54.5 163q0 76 -41.5 121 t-112.5 45h-39l56 268q44 -10 63 -10q51 0 82 37.5t31 99.5q0 52 -28 83.5t-73 31.5q-58 0 -89.5 -39.5t-51.5 -122.5l-231 -1012h-412z" />
<glyph unicode="&#xe0;" horiz-adv-x="1202" d="M6 272q0 99 51 180t144 128q81 41 181.5 60t272.5 30l121 8q12 40 12 63q0 44 -28 68.5t-80 24.5q-54 0 -82 -23.5t-47 -83.5q-360 8 -395 8q43 187 179 271t394 84q241 0 357 -73t116 -224q0 -58 -26 -175l-103 -442q-24 -110 -24 -127q0 -29 6 -49h-367q-12 28 -12 49 q0 35 18 98q-51 -86 -142 -132t-210 -46q-152 0 -244 83t-92 220zM346 1485h424l129 -281h-235zM391 313q0 -35 23.5 -54t66.5 -19q83 0 149 46t93 152h-12q-61 0 -115 -6.5t-101.5 -20t-75.5 -39t-28 -59.5z" />
<glyph unicode="&#xe1;" horiz-adv-x="1202" d="M6 272q0 99 51 180t144 128q81 41 181.5 60t272.5 30l121 8q12 40 12 63q0 44 -28 68.5t-80 24.5q-54 0 -82 -23.5t-47 -83.5q-360 8 -395 8q43 187 179 271t394 84q241 0 357 -73t116 -224q0 -58 -26 -175l-103 -442q-24 -110 -24 -127q0 -29 6 -49h-367q-12 28 -12 49 q0 35 18 98q-51 -86 -142 -132t-210 -46q-152 0 -244 83t-92 220zM391 313q0 -35 23.5 -54t66.5 -19q83 0 149 46t93 152h-12q-61 0 -115 -6.5t-101.5 -20t-75.5 -39t-28 -59.5zM573 1204l215 283h420l-397 -283h-238z" />
<glyph unicode="&#xe2;" horiz-adv-x="1202" d="M6 272q0 99 51 180t144 128q81 41 181.5 60t272.5 30l121 8q12 40 12 63q0 44 -28 68.5t-80 24.5q-54 0 -82 -23.5t-47 -83.5q-360 8 -395 8q43 187 179 271t394 84q241 0 357 -73t116 -224q0 -58 -26 -175l-103 -442q-24 -110 -24 -127q0 -29 6 -49h-367q-12 28 -12 49 q0 35 18 98q-51 -86 -142 -132t-210 -46q-152 0 -244 83t-92 220zM379 1202l301 283h317l140 -283h-277l-45 135l-121 -135h-315zM391 313q0 -35 23.5 -54t66.5 -19q83 0 149 46t93 152h-12q-61 0 -115 -6.5t-101.5 -20t-75.5 -39t-28 -59.5z" />
<glyph unicode="&#xe3;" horiz-adv-x="1202" d="M6 272q0 99 51 180t144 128q81 41 181.5 60t272.5 30l121 8q12 40 12 63q0 44 -28 68.5t-80 24.5q-54 0 -82 -23.5t-47 -83.5q-360 8 -395 8q43 187 179 271t394 84q241 0 357 -73t116 -224q0 -58 -26 -175l-103 -442q-24 -110 -24 -127q0 -29 6 -49h-367q-12 28 -12 49 q0 35 18 98q-51 -86 -142 -132t-210 -46q-152 0 -244 83t-92 220zM391 313q0 -35 23.5 -54t66.5 -19q83 0 149 46t93 152h-12q-61 0 -115 -6.5t-101.5 -20t-75.5 -39t-28 -59.5zM399 1200q40 157 97.5 227t150.5 70q44 0 92.5 -22t90.5 -44t71 -22q21 0 35.5 19t28.5 61h176 q-40 -159 -97.5 -231t-134.5 -72q-44 0 -97 23t-98.5 46t-70.5 23q-43 0 -65 -78h-179z" />
<glyph unicode="&#xe4;" horiz-adv-x="1202" d="M6 272q0 99 51 180t144 128q81 41 181.5 60t272.5 30l121 8q12 40 12 63q0 44 -28 68.5t-80 24.5q-54 0 -82 -23.5t-47 -83.5q-360 8 -395 8q43 187 179 271t394 84q241 0 357 -73t116 -224q0 -58 -26 -175l-103 -442q-24 -110 -24 -127q0 -29 6 -49h-367q-12 28 -12 49 q0 35 18 98q-51 -86 -142 -132t-210 -46q-152 0 -244 83t-92 220zM313 1227l54 243h342l-54 -243h-342zM391 313q0 -35 23.5 -54t66.5 -19q83 0 149 46t93 152h-12q-61 0 -115 -6.5t-101.5 -20t-75.5 -39t-28 -59.5zM815 1227l55 243h340l-55 -243h-340z" />
<glyph unicode="&#xe5;" horiz-adv-x="1202" d="M6 272q0 99 51 180t144 128q81 41 181.5 60t272.5 30l121 8q12 40 12 63q0 44 -28 68.5t-80 24.5q-54 0 -82 -23.5t-47 -83.5q-360 8 -395 8q43 187 179 271t394 84q241 0 357 -73t116 -224q0 -58 -26 -175l-103 -442q-24 -110 -24 -127q0 -29 6 -49h-367q-12 28 -12 49 q0 35 18 98q-51 -86 -142 -132t-210 -46q-152 0 -244 83t-92 220zM391 313q0 -35 23.5 -54t66.5 -19q83 0 149 46t93 152h-12q-61 0 -115 -6.5t-101.5 -20t-75.5 -39t-28 -59.5zM551 1413q0 94 66.5 160.5t160.5 66.5t161 -67.5t67 -161.5q0 -92 -67 -158.5t-159 -66.5 q-97 0 -163 66t-66 161zM705 1413q0 -32 20.5 -53t52.5 -21q31 0 51.5 21.5t20.5 52.5t-21.5 52.5t-52.5 21.5q-29 0 -50 -21.5t-21 -52.5z" />
<glyph unicode="&#xe6;" horiz-adv-x="1861" d="M6 272q0 67 20 122t52.5 94t83.5 69.5t103.5 49t122.5 32t130.5 20t136.5 11.5l121 8q12 40 12 63q0 44 -28 68.5t-80 24.5q-54 0 -82 -23.5t-47 -83.5q-364 8 -395 8q38 181 174.5 268t384.5 87q116 0 196.5 -18t151.5 -58q128 71 289 71q241 0 378.5 -135t137.5 -370 q0 -48 -8 -121h-727v-13q0 -182 157 -182q63 0 107 31.5t78 99.5l348 -108q-95 -164 -229.5 -241t-327.5 -77q-146 0 -249.5 42t-182.5 134q-196 -178 -463 -178q-170 0 -267.5 82t-97.5 223zM391 313q0 -35 23.5 -54t66.5 -19q95 0 154 49t88 149h-12q-36 0 -69 -1.5 t-82 -9t-83.5 -20t-60 -37t-25.5 -57.5zM1161 672h326q0 69 -40.5 106t-109.5 37q-127 0 -176 -143z" />
<glyph unicode="&#xe7;" horiz-adv-x="1263" d="M78 479q0 127 50 240t136.5 193.5t207 127.5t255.5 47q206 0 350 -101.5t187 -276.5l-379 -76q-17 79 -55 116t-101 37q-95 0 -159 -90.5t-64 -224.5q0 -98 43.5 -153.5t118.5 -55.5q71 0 117 40.5t81 133.5l363 -94q-86 -191 -228.5 -279t-357.5 -94l-53 -73q10 1 21 2 t18 1.5t14 0.5q69 0 106 -30.5t37 -86.5q0 -94 -89.5 -153.5t-229.5 -59.5q-57 0 -139 12l26 115q27 -8 52 -8q37 0 63.5 14.5t26.5 36.5q0 29 -47 29q-25 0 -82 -13l14 60l147 161q-210 34 -330 167.5t-120 334.5z" />
<glyph unicode="&#xe8;" horiz-adv-x="1245" d="M78 477q0 62 15 128.5t45.5 135.5t82 130t118.5 109.5t162.5 76.5t207.5 28q241 0 378.5 -135t137.5 -370q0 -66 -8 -121h-725v-13q0 -182 155 -182q63 0 106.5 31.5t77.5 99.5l349 -108q-95 -164 -229 -241t-324 -77q-247 0 -398 139.5t-151 368.5zM334 1485h424 l129 -281h-236zM518 672h326q-1 15 -2.5 26t-10.5 35t-23.5 40t-44 29t-69.5 13q-127 0 -176 -143z" />
<glyph unicode="&#xe9;" horiz-adv-x="1245" d="M78 477q0 62 15 128.5t45.5 135.5t82 130t118.5 109.5t162.5 76.5t207.5 28q241 0 378.5 -135t137.5 -370q0 -66 -8 -121h-725v-13q0 -182 155 -182q63 0 106.5 31.5t77.5 99.5l349 -108q-95 -164 -229 -241t-324 -77q-247 0 -398 139.5t-151 368.5zM518 672h326 q-1 15 -2.5 26t-10.5 35t-23.5 40t-44 29t-69.5 13q-127 0 -176 -143zM535 1204l215 283h419l-397 -283h-237z" />
<glyph unicode="&#xea;" horiz-adv-x="1245" d="M78 477q0 62 15 128.5t45.5 135.5t82 130t118.5 109.5t162.5 76.5t207.5 28q241 0 378.5 -135t137.5 -370q0 -66 -8 -121h-725v-13q0 -182 155 -182q63 0 106.5 31.5t77.5 99.5l349 -108q-95 -164 -229 -241t-324 -77q-247 0 -398 139.5t-151 368.5zM346 1202l301 283 h318l139 -283h-277l-45 135l-120 -135h-316zM518 672h326q-1 15 -2.5 26t-10.5 35t-23.5 40t-44 29t-69.5 13q-127 0 -176 -143z" />
<glyph unicode="&#xeb;" horiz-adv-x="1245" d="M78 477q0 62 15 128.5t45.5 135.5t82 130t118.5 109.5t162.5 76.5t207.5 28q241 0 378.5 -135t137.5 -370q0 -66 -8 -121h-725v-13q0 -182 155 -182q63 0 106.5 31.5t77.5 99.5l349 -108q-95 -164 -229 -241t-324 -77q-247 0 -398 139.5t-151 368.5zM305 1227l53 243h342 l-53 -243h-342zM518 672h326q-1 15 -2.5 26t-10.5 35t-23.5 40t-44 29t-69.5 13q-127 0 -176 -143zM807 1227l55 243h340l-55 -243h-340z" />
<glyph unicode="&#xec;" horiz-adv-x="610" d="M0 0l240 1055h422l-240 -1055h-422zM86 1485h424l129 -281h-236z" />
<glyph unicode="&#xed;" horiz-adv-x="610" d="M0 0l240 1055h422l-240 -1055h-422zM301 1204l215 283h420l-397 -283h-238z" />
<glyph unicode="&#xee;" horiz-adv-x="610" d="M0 0l240 1055h422l-240 -1055h-422zM70 1202l301 283h317l139 -283h-276l-45 135l-121 -135h-315z" />
<glyph unicode="&#xef;" horiz-adv-x="610" d="M0 0l240 1055h422l-240 -1055h-422zM51 1227l53 243h342l-53 -243h-342zM553 1227l55 243h340l-55 -243h-340z" />
<glyph unicode="&#xf0;" horiz-adv-x="1249" d="M78 475q0 159 69 290.5t189.5 207.5t265.5 76q86 0 150 -30.5t118 -98.5q-37 165 -127 309l-337 -49l-23 112l285 43q-34 47 -82 107l299 43q12 -16 38 -51t40 -54l200 29l27 -115l-154 -22q197 -326 197 -637q0 -298 -173 -481t-454 -183q-238 0 -383 138.5t-145 365.5z M487 475q0 -95 39 -150t105 -55q84 0 141 91.5t57 224.5q0 78 -37 130t-112 52q-81 0 -137 -86t-56 -207z" />
<glyph unicode="&#xf1;" horiz-adv-x="1302" d="M0 0l242 1055h417l-28 -129q136 157 362 157q143 0 228.5 -72.5t85.5 -193.5q0 -61 -43 -248l-127 -569h-420l114 522q19 90 19 121q0 52 -29.5 82.5t-79.5 30.5q-77 0 -123.5 -58.5t-76.5 -185.5l-119 -512h-422zM457 1200q40 157 97.5 227t150.5 70q44 0 92 -22t90 -44 t71 -22q21 0 35.5 19t28.5 61h176q-40 -159 -97 -231t-134 -72q-44 0 -97 23t-99 46t-71 23q-43 0 -65 -78h-178z" />
<glyph unicode="&#xf2;" horiz-adv-x="1249" d="M78 477q0 171 81 308.5t223.5 215.5t319.5 78q239 0 386 -135t147 -356q0 -173 -82 -314.5t-226 -222t-321 -80.5q-238 0 -383 138.5t-145 367.5zM348 1485h424l129 -281h-235zM487 473q0 -94 39 -148.5t105 -54.5q85 0 141.5 92.5t56.5 229.5q0 39 -7 72.5t-23 63.5 t-46 47.5t-71 17.5q-81 0 -138 -94.5t-57 -225.5z" />
<glyph unicode="&#xf3;" horiz-adv-x="1249" d="M78 477q0 171 81 308.5t223.5 215.5t319.5 78q239 0 386 -135t147 -356q0 -173 -82 -314.5t-226 -222t-321 -80.5q-238 0 -383 138.5t-145 367.5zM487 473q0 -94 39 -148.5t105 -54.5q85 0 141.5 92.5t56.5 229.5q0 39 -7 72.5t-23 63.5t-46 47.5t-71 17.5 q-81 0 -138 -94.5t-57 -225.5zM539 1204l215 283h420l-398 -283h-237z" />
<glyph unicode="&#xf4;" horiz-adv-x="1249" d="M78 477q0 171 81 308.5t223.5 215.5t319.5 78q239 0 386 -135t147 -356q0 -173 -82 -314.5t-226 -222t-321 -80.5q-238 0 -383 138.5t-145 367.5zM358 1202l301 283h318l139 -283h-276l-45 135l-121 -135h-316zM487 473q0 -94 39 -148.5t105 -54.5q85 0 141.5 92.5 t56.5 229.5q0 39 -7 72.5t-23 63.5t-46 47.5t-71 17.5q-81 0 -138 -94.5t-57 -225.5z" />
<glyph unicode="&#xf5;" horiz-adv-x="1249" d="M78 477q0 171 81 308.5t223.5 215.5t319.5 78q239 0 386 -135t147 -356q0 -173 -82 -314.5t-226 -222t-321 -80.5q-238 0 -383 138.5t-145 367.5zM365 1200q40 157 97 227t150 70q44 0 92.5 -22t90.5 -44t71 -22q21 0 35.5 19t28.5 61h176q-40 -159 -97.5 -231 t-134.5 -72q-44 0 -97 23t-98.5 46t-70.5 23q-43 0 -65 -78h-178zM487 473q0 -94 39 -148.5t105 -54.5q85 0 141.5 92.5t56.5 229.5q0 39 -7 72.5t-23 63.5t-46 47.5t-71 17.5q-81 0 -138 -94.5t-57 -225.5z" />
<glyph unicode="&#xf6;" horiz-adv-x="1249" d="M78 477q0 171 81 308.5t223.5 215.5t319.5 78q239 0 386 -135t147 -356q0 -173 -82 -314.5t-226 -222t-321 -80.5q-238 0 -383 138.5t-145 367.5zM319 1227l54 243h342l-53 -243h-343zM487 473q0 -94 39 -148.5t105 -54.5q85 0 141.5 92.5t56.5 229.5q0 39 -7 72.5 t-23 63.5t-46 47.5t-71 17.5q-81 0 -138 -94.5t-57 -225.5zM821 1227l56 243h340l-56 -243h-340z" />
<glyph unicode="&#xf7;" d="M199 512l75 336h1158l-76 -336h-1157zM487 57l82 359h363l-82 -359h-363zM694 946l82 359h361l-82 -359h-361z" />
<glyph unicode="&#xf8;" horiz-adv-x="1325" d="M78 477q0 172 86 309.5t239.5 215t344.5 77.5q121 0 227 -32l90 131h162l-129 -189q213 -147 213 -401q0 -174 -87.5 -315t-241.5 -221.5t-343 -80.5q-70 0 -110.5 6t-106.5 27l-86 -127h-162l123 182q-107 72 -163 179t-56 239zM500 475q0 -56 16 -96l279 403 q-33 17 -68 17q-95 0 -161 -94t-66 -230zM608 274q36 -10 62 -10q96 0 159.5 92t63.5 230q0 46 -12 88z" />
<glyph unicode="&#xf9;" horiz-adv-x="1302" d="M51 238q0 48 43 247l127 570h420l-115 -523q-18 -88 -18 -120q0 -52 29 -82.5t79 -30.5q76 0 125 60t76 180l119 516h422l-242 -1055h-418l29 127q-138 -156 -362 -156q-143 0 -228.5 73t-85.5 194zM428 1485h424l129 -281h-236z" />
<glyph unicode="&#xfa;" horiz-adv-x="1302" d="M51 238q0 48 43 247l127 570h420l-115 -523q-18 -88 -18 -120q0 -52 29 -82.5t79 -30.5q76 0 125 60t76 180l119 516h422l-242 -1055h-418l29 127q-138 -156 -362 -156q-143 0 -228.5 73t-85.5 194zM618 1204l216 283h419l-397 -283h-238z" />
<glyph unicode="&#xfb;" horiz-adv-x="1302" d="M51 238q0 48 43 247l127 570h420l-115 -523q-18 -88 -18 -120q0 -52 29 -82.5t79 -30.5q76 0 125 60t76 180l119 516h422l-242 -1055h-418l29 127q-138 -156 -362 -156q-143 0 -228.5 73t-85.5 194zM416 1202l301 283h317l140 -283h-277l-45 135l-121 -135h-315z" />
<glyph unicode="&#xfc;" horiz-adv-x="1302" d="M51 238q0 48 43 247l127 570h420l-115 -523q-18 -88 -18 -120q0 -52 29 -82.5t79 -30.5q76 0 125 60t76 180l119 516h422l-242 -1055h-418l29 127q-138 -156 -362 -156q-143 0 -228.5 73t-85.5 194zM389 1227l53 243h342l-53 -243h-342zM891 1227l55 243h340l-55 -243 h-340z" />
<glyph unicode="&#xfd;" horiz-adv-x="1183" d="M-45 -365l68 308q82 -15 114 -15q46 0 71 15t54 59l-133 1053h428l23 -570l272 570h477l-715 -1143q-70 -113 -128 -172.5t-140 -91t-203 -31.5q-83 0 -188 18zM535 1204l215 283h419l-397 -283h-237z" />
<glyph unicode="&#xfe;" horiz-adv-x="1331" d="M-88 -385l420 1831h422l-107 -457q117 92 266 92q180 0 292 -122t112 -320q0 -182 -81.5 -335t-222 -242t-306.5 -89q-173 0 -265 111l-106 -469h-424zM528 428q0 -82 34.5 -129t96.5 -47q70 0 123.5 62t77 142t23.5 156q0 78 -39.5 128.5t-102.5 50.5 q-86 0 -149.5 -107.5t-63.5 -255.5z" />
<glyph unicode="&#xff;" horiz-adv-x="1183" d="M-45 -365l68 308q82 -15 114 -15q46 0 71 15t54 59l-133 1053h428l23 -570l272 570h477l-715 -1143q-70 -113 -128 -172.5t-140 -91t-203 -31.5q-83 0 -188 18zM319 1227l54 243h342l-53 -243h-343zM821 1227l56 243h340l-56 -243h-340z" />
<glyph unicode="&#x152;" horiz-adv-x="2297" d="M125 602q0 174 60 331t166 274.5t263.5 187t341.5 69.5q112 0 179.5 -19t154.5 -75l17 76h1046l-72 -320h-595l-52 -223h572l-72 -317h-571l-62 -264h699l-70 -322h-1139l19 80q-70 -57 -133.5 -77.5t-163.5 -20.5q-270 0 -429 167.5t-159 452.5zM596 588 q0 -130 66 -206.5t180 -76.5q70 0 123.5 29.5t111.5 97.5l115 502q-50 190 -240 190q-152 0 -254 -153t-102 -383z" />
<glyph unicode="&#x153;" horiz-adv-x="1974" d="M78 481q0 172 86.5 309.5t240 215t345.5 77.5q113 0 197 -27t157 -87q154 116 360 116q241 0 379.5 -135t138.5 -370q0 -48 -8 -121h-727v-13q0 -182 158 -182q61 0 104.5 31.5t79.5 99.5l346 -108q-92 -160 -224.5 -239t-319.5 -79q-109 0 -197 28.5t-172 100.5 q-72 -57 -173.5 -93t-213.5 -36q-249 0 -403 141.5t-154 370.5zM506 481q0 -96 42 -152.5t114 -56.5q89 0 146.5 90t57.5 228q0 96 -40.5 151.5t-110.5 55.5q-55 0 -98 -31.5t-66 -81t-34 -101.5t-11 -102zM1276 672h326q0 69 -41 106t-109 37q-127 0 -176 -143z" />
<glyph unicode="&#x178;" horiz-adv-x="1404" d="M203 1446h489l125 -445l297 445h535l-688 -883l-132 -563h-452l139 608zM514 1550l57 244h334l-55 -244h-336zM983 1550l55 244h336l-55 -244h-336z" />
<glyph unicode="&#x2c6;" horiz-adv-x="598" d="M-80 1202l301 283h318l139 -283h-277l-45 135l-120 -135h-316z" />
<glyph unicode="&#x2dc;" horiz-adv-x="598" d="M-72 1200q40 157 97.5 227t150.5 70q44 0 92.5 -22t90.5 -44t71 -22q21 0 35.5 19t28.5 61h176q-40 -159 -97.5 -231t-134.5 -72q-44 0 -97 23t-98.5 46t-70.5 23q-44 0 -66 -78h-178z" />
<glyph unicode="&#x2000;" horiz-adv-x="956" />
<glyph unicode="&#x2001;" horiz-adv-x="1913" />
<glyph unicode="&#x2002;" horiz-adv-x="956" />
<glyph unicode="&#x2003;" horiz-adv-x="1913" />
<glyph unicode="&#x2004;" horiz-adv-x="637" />
<glyph unicode="&#x2005;" horiz-adv-x="478" />
<glyph unicode="&#x2006;" horiz-adv-x="318" />
<glyph unicode="&#x2007;" horiz-adv-x="318" />
<glyph unicode="&#x2008;" horiz-adv-x="239" />
<glyph unicode="&#x2009;" horiz-adv-x="382" />
<glyph unicode="&#x200a;" horiz-adv-x="106" />
<glyph unicode="&#x2010;" horiz-adv-x="765" d="M76 471l80 350h647l-82 -350h-645z" />
<glyph unicode="&#x2011;" horiz-adv-x="765" d="M76 471l80 350h647l-82 -350h-645z" />
<glyph unicode="&#x2012;" horiz-adv-x="765" d="M76 471l80 350h647l-82 -350h-645z" />
<glyph unicode="&#x2013;" horiz-adv-x="1288" d="M76 471l82 350h1167l-80 -350h-1169z" />
<glyph unicode="&#x2014;" horiz-adv-x="1941" d="M76 467l80 350h1820l-80 -350h-1820z" />
<glyph unicode="&#x2018;" horiz-adv-x="526" d="M152 745l63 277q52 227 165.5 333.5t336.5 143.5l-49 -201q-75 -26 -105.5 -58.5t-60.5 -115.5h123l-86 -379h-387z" />
<glyph unicode="&#x2019;" horiz-adv-x="526" d="M121 690l49 201q76 26 107 59t59 117h-123l86 379h387l-63 -277q-53 -231 -164 -335t-338 -144z" />
<glyph unicode="&#x201a;" horiz-adv-x="526" d="M-106 -377l51 201q75 27 105.5 60t60.5 116h-123l86 379h387l-64 -277q-52 -227 -164.5 -333t-338.5 -146z" />
<glyph unicode="&#x201c;" horiz-adv-x="1005" d="M152 745l63 277q52 227 165.5 333.5t336.5 143.5l-49 -201q-75 -26 -105.5 -58.5t-60.5 -115.5h129l-92 -379h-387zM631 745l65 277q56 230 166 335t336 142l-49 -201q-77 -26 -107.5 -58.5t-60.5 -115.5h123l-86 -379h-387z" />
<glyph unicode="&#x201d;" horiz-adv-x="1005" d="M121 690l49 201q76 26 107 59t59 117h-123l86 379h387l-63 -277q-53 -231 -164 -335t-338 -144zM600 690l49 201q76 26 107 59t59 117h-123l86 379h387l-63 -277q-54 -231 -164 -335t-338 -144z" />
<glyph unicode="&#x201e;" horiz-adv-x="1005" d="M-106 -377l51 201q75 27 105.5 60t60.5 116h-123l86 379h387l-64 -277q-52 -227 -164.5 -333t-338.5 -146zM375 -377l49 201q75 27 106.5 61t59.5 115h-123l86 379h387l-63 -277q-53 -229 -165.5 -334t-336.5 -145z" />
<glyph unicode="&#x2022;" horiz-adv-x="681" d="M90 449l125 528h526l-123 -528h-528z" />
<glyph unicode="&#x2026;" horiz-adv-x="2048" d="M113 0l63 287h289l-64 -287h-288zM797 0l63 287h291l-64 -287h-290zM1479 0l63 287h291l-64 -287h-290z" />
<glyph unicode="&#x202f;" horiz-adv-x="382" />
<glyph unicode="&#x2039;" horiz-adv-x="425" d="M59 473l76 352l371 256l-72 -333l-203 -119l144 -152l-64 -291z" />
<glyph unicode="&#x203a;" horiz-adv-x="425" d="M6 188l74 334l201 119l-142 152l62 292l254 -286l-76 -355z" />
<glyph unicode="&#x205f;" horiz-adv-x="478" />
<glyph unicode="&#x20ac;" horiz-adv-x="1423" d="M90 498l82 166h86q6 48 16 81h-137l78 166h98q88 264 281.5 402.5t474.5 138.5q138 0 251.5 -31t217.5 -104l-178 -348q-67 81 -134.5 112t-152.5 31q-109 0 -180.5 -49t-114.5 -152h555l-84 -166h-518q-11 -36 -18 -81h495l-86 -166h-405q15 -92 83.5 -141.5 t182.5 -49.5q106 0 183 33t177 121l-102 -447q-104 -35 -174.5 -47t-173.5 -12q-283 0 -450 138.5t-185 404.5h-168z" />
<glyph unicode="&#x2122;" horiz-adv-x="1533" d="M231 1296l37 150h547l-37 -150h-162l-118 -530h-209l119 530h-177zM735 766l154 680h291l-2 -436l194 436h291l-150 -680h-194l111 471l-224 -471h-164l-8 469l-100 -469h-199z" />
<glyph unicode="&#xe000;" horiz-adv-x="1054" d="M0 0v1055h1055v-1055h-1055z" />
</font>
</defs>
</svg>
